<svg width="33" height="9" viewBox="0 0 33 9" fill="none" xmlns="http://www.w3.org/2000/svg">
<path opacity="0.9" d="M6.93 0.354999V8H5.676V4.656H2.079V8H0.825V0.354999H2.079V3.633H5.676V0.354999H6.93ZM11.2099 8.099C10.6379 8.099 10.1209 7.97067 9.65886 7.714C9.19686 7.45 8.83386 7.08333 8.56986 6.614C8.30586 6.13733 8.17386 5.58733 8.17386 4.964C8.17386 4.348 8.30953 3.80167 8.58086 3.325C8.85219 2.84833 9.22253 2.48167 9.69186 2.225C10.1612 1.96833 10.6855 1.84 11.2649 1.84C11.8442 1.84 12.3685 1.96833 12.8379 2.225C13.3072 2.48167 13.6775 2.84833 13.9489 3.325C14.2202 3.80167 14.3559 4.348 14.3559 4.964C14.3559 5.58 14.2165 6.12633 13.9379 6.603C13.6592 7.07967 13.2779 7.45 12.7939 7.714C12.3172 7.97067 11.7892 8.099 11.2099 8.099ZM11.2099 7.01C11.5325 7.01 11.8332 6.933 12.1119 6.779C12.3979 6.625 12.6289 6.394 12.8049 6.086C12.9809 5.778 13.0689 5.404 13.0689 4.964C13.0689 4.524 12.9845 4.15367 12.8159 3.853C12.6472 3.545 12.4235 3.314 12.1449 3.16C11.8662 3.006 11.5655 2.929 11.2429 2.929C10.9202 2.929 10.6195 3.006 10.3409 3.16C10.0695 3.314 9.85319 3.545 9.69186 3.853C9.53053 4.15367 9.44986 4.524 9.44986 4.964C9.44986 5.61667 9.61486 6.12267 9.94486 6.482C10.2822 6.834 10.7039 7.01 11.2099 7.01ZM22.9325 1.84C23.4092 1.84 23.8345 1.939 24.2085 2.137C24.5898 2.335 24.8868 2.62833 25.0995 3.017C25.3195 3.40567 25.4295 3.875 25.4295 4.425V8H24.1865V4.612C24.1865 4.06933 24.0508 3.655 23.7795 3.369C23.5082 3.07567 23.1378 2.929 22.6685 2.929C22.1992 2.929 21.8252 3.07567 21.5465 3.369C21.2752 3.655 21.1395 4.06933 21.1395 4.612V8H19.8965V4.612C19.8965 4.06933 19.7608 3.655 19.4895 3.369C19.2182 3.07567 18.8478 2.929 18.3785 2.929C17.9092 2.929 17.5352 3.07567 17.2565 3.369C16.9852 3.655 16.8495 4.06933 16.8495 4.612V8H15.5955V1.939H16.8495V2.632C17.0548 2.38267 17.3152 2.18833 17.6305 2.049C17.9458 1.90967 18.2832 1.84 18.6425 1.84C19.1265 1.84 19.5592 1.94267 19.9405 2.148C20.3218 2.35333 20.6152 2.65033 20.8205 3.039C21.0038 2.67233 21.2898 2.38267 21.6785 2.17C22.0672 1.95 22.4852 1.84 22.9325 1.84ZM32.5802 4.821C32.5802 5.04833 32.5655 5.25367 32.5362 5.437H27.9052C27.9419 5.921 28.1215 6.30967 28.4442 6.603C28.7669 6.89633 29.1629 7.043 29.6322 7.043C30.3069 7.043 30.7835 6.76067 31.0622 6.196H32.4152C32.2319 6.75333 31.8982 7.21167 31.4142 7.571C30.9375 7.923 30.3435 8.099 29.6322 8.099C29.0529 8.099 28.5322 7.97067 28.0702 7.714C27.6155 7.45 27.2562 7.08333 26.9922 6.614C26.7355 6.13733 26.6072 5.58733 26.6072 4.964C26.6072 4.34067 26.7319 3.79433 26.9812 3.325C27.2379 2.84833 27.5935 2.48167 28.0482 2.225C28.5102 1.96833 29.0382 1.84 29.6322 1.84C30.2042 1.84 30.7139 1.96467 31.1612 2.214C31.6085 2.46333 31.9569 2.81533 32.2062 3.27C32.4555 3.71733 32.5802 4.23433 32.5802 4.821ZM31.2712 4.425C31.2639 3.963 31.0989 3.59267 30.7762 3.314C30.4535 3.03533 30.0539 2.896 29.5772 2.896C29.1445 2.896 28.7742 3.03533 28.4662 3.314C28.1582 3.58533 27.9749 3.95567 27.9162 4.425H31.2712Z" fill="black" fill-opacity="0.8"/>
</svg>
